Coordinates
version=1
nRows=11
nColumns=36
inDegrees=yes

Units are S.I. units (second, meters, Newtons, ...)
If the header above contains a line with 'inDegrees', this indicates whether rotational values are in degrees (yes) or radians (no).

endheader
time	pelvis_tilt	pelvis_list	pelvis_rotation	pelvis_tx	pelvis_ty	pelvis_tz	hip_flexion_r	hip_adduction_r	hip_rotation_r	knee_angle_r	knee_angle_r_beta	ankle_angle_r	subtalar_angle_r	mtp_angle_r	hip_flexion_l	hip_adduction_l	hip_rotation_l	knee_angle_l	knee_angle_l_beta	ankle_angle_l	subtalar_angle_l	mtp_angle_l	lumbar_extension	lumbar_bending	lumbar_rotation	arm_flex_r	arm_add_r	arm_rot_r	elbow_flex_r	pro_sup_r	arm_flex_l	arm_add_l	arm_rot_l	elbow_flex_l	pro_sup_l
      6.20000000	    -26.31638301	      0.63793140	      6.96872076	      0.55086359	      0.79029070	     -0.15238307	     67.04171612	     -2.80820947	     11.85443334	     73.27059701	      1.27881316	     26.21448139	    -19.68376328	     -7.49999987	     66.47223984	     -2.72099777	     -0.26593461	     71.71231182	      1.25161596	     11.81797901	    -26.19644116	     -7.49999987	    -35.48433255	     -2.81990446	     -0.75006300	     25.52709597	    -10.41641678	      5.12827400	     67.99428875	     93.43943774	     41.04566452	    -12.48608198	     17.88281894	     61.58840156	     90.13185586
      6.21666670	    -23.91152770	      0.74598512	      7.30201705	      0.56272969	      0.79201879	     -0.14704981	     61.73350787	     -1.97773909	     12.60895480	     71.63704147	      1.25030224	     25.63011387	    -21.47660304	     -7.49999987	     61.72999328	     -2.73427608	      0.25326494	     70.50563809	      1.23055553	     12.16773019	    -26.08778516	     -7.49999987	    -33.77061319	     -3.21429286	     -0.73534958	     17.98752346	     -9.83636908	      4.04870251	     64.95167653	     90.76685074	     31.19041207	    -15.43344168	     16.91877227	     65.15069168	     87.71404056
      6.23333330	    -20.83632227	      0.75422983	      7.62615188	      0.58595282	      0.81481371	     -0.16266413	     54.79756617	     -1.67236354	     13.29734481	     68.78884971	      1.20059192	     25.43538729	    -22.35578443	     -7.49999987	     55.58905917	     -2.05139064	      0.85490567	     68.31605471	      1.19234009	     11.96527209	    -26.71589078	     -7.49999987	    -31.99549951	     -2.59419745	     -3.03588100	     12.76473045	     -9.75224081	      6.98820072	     59.42240302	     92.34679690	     19.27693830	    -17.82474254	     13.46899794	     71.37434799	     90.00104035
      6.25000000	    -18.74734651	      0.97359258	      7.97774114	      0.58397020	      0.84180880	     -0.16653383	     49.15597308	     -1.77811098	     14.17840555	     64.66111593	      1.12854937	     23.46084931	    -24.39733927	     -7.49999987	     50.53703666	     -1.02635839	      1.13516185	     64.87627733	      1.13230465	     10.86994477	    -28.01583535	     -7.49999987	    -29.26392997	     -2.54815687	     -3.98186502	      6.90584637	    -10.55878467	      7.13593978	     57.69438930	     92.77299403	      9.64587579	    -18.97445238	     11.53456331	     77.31420688	     93.33247878
      6.26666670	    -17.56065563	      1.03636722	      8.29958309	      0.58035641	      0.86662633	     -0.16745015	     45.07500206	     -2.06991978	     14.88115991	     59.98633700	      1.04695909	     20.49433643	    -25.41143727	     -7.49999987	     46.74929358	     -0.10572565	      1.67954220	     60.58793435	      1.05745894	      8.52363289	    -29.01052572	     -7.49999987	    -26.38476527	     -2.48497660	     -4.55959970	      1.25213647	    -11.89053517	      6.56710169	     60.56836737	     91.75899806	      1.10837100	    -19.66857802	      8.92004588	     86.81889104	     94.08375090
      6.28333330	    -16.96546791	      0.99987441	      8.69905761	      0.58990360	      0.87292428	     -0.16926378	     42.19130430	     -2.61657824	     15.12030969	     56.32634466	      0.98308017	     18.11395893	    -26.06577162	     -7.49999987	     44.47692198	      0.45064126	      2.28054179	     57.50965452	      1.00373282	      6.30293151	    -29.23623385	     -7.49999987	    -22.60973540	     -2.33310040	     -3.88527104	     -6.61412578	    -14.21328361	      6.27882765	     67.65260441	     91.86618970	     -8.58326285	    -20.99847641	      8.60163009	     98.42246114	     94.80293060
      6.30000000	    -17.02784018	      0.91780730	      8.64155555	      0.60336509	      0.89475880	     -0.17319777	     39.73279793	     -3.24375007	     15.38834335	     51.65772966	      0.90159747	     14.75007297	    -26.00808241	     -7.49999987	     42.11661551	      0.55903486	      2.42801366	     53.24470427	      0.92929540	      3.54098449	    -28.93715506	     -7.49999987	    -18.30558203	     -1.89215242	     -3.63977392	    -14.01490268	    -16.45511979	      6.70803805	     74.20918652	     91.56372563	    -17.10844148	    -21.73407677	      7.33094032	    106.53998413	     95.06312028
      6.31666670	    -17.01624623	      0.83848578	      8.58624820	      0.62185831	      0.92627395	     -0.17382759	     36.37887237	     -4.57067526	     14.66676398	     44.86566221	      0.78305353	     12.25092068	    -26.45827199	     -7.49999987	     38.30117118	      0.31467996	      2.13809483	     46.64897141	      0.81417814	      0.42998226	    -27.48369116	     -7.49999987	    -14.28041362	     -1.75328045	     -3.82929686	    -20.26187454	    -18.10779239	      6.99886046	     77.93624493	     92.63239873	    -24.89313377	    -21.38704236	      5.03691856	    112.55816929	     99.42197876
      6.33333330	    -16.78187846	      0.61097404	      8.37722332	      0.63173878	      0.95953767	     -0.17958929	     31.43691187	     -5.49108163	     13.74311080	     36.56053125	      0.63810165	      6.49431616	    -22.07184780	     -7.49999987	     33.68798790	     -0.21342357	      1.54428025	     38.84109290	      0.67790496	     -4.15721506	    -24.70463784	     -7.49999987	    -10.76648650	     -1.26069948	     -3.65241060	    -24.95620282	    -18.90329793	      6.11866264	     79.75481239	     91.46624370	    -29.49873167	    -21.36517061	      5.05125953	    115.20289360	     98.04703269
      6.35000000	    -15.53097001	      0.59582480	      8.71385613	      0.64544193	      1.00304879	     -0.17770997	     24.87766755	     -6.75857313	     12.17814913	     27.07814717	      0.47260282	     -0.33975137	    -15.38704242	     -7.49999987	     27.29814608	     -0.81901955	      0.34079981	     29.40964878	      0.51329520	     -9.70618354	    -19.57494617	     -7.49999987	     -8.84004622	     -1.06814020	     -3.94935884	    -27.58086317	    -18.18826924	      4.54116364	     79.11153621	     90.46815667	    -32.74296174	    -20.37047383	      3.91194511	    114.39408772	     96.89478473
      6.36666670	    -14.47180758	      0.66059154	      8.56168782	      0.65361055	      1.03530893	     -0.17690037	     20.15224298	     -8.21660453	      9.40960801	     19.06877439	      0.33281290	     -4.90804839	     -9.80348762	     -7.49999987	     21.39643068	     -1.36576575	     -1.03830076	     19.55803057	      0.34135203	    -17.40398150	    -15.27343942	     -7.49999987	     -7.36431903	     -1.19644262	     -4.20226442	    -27.97037038	    -17.77873369	      4.45564403	     76.61242619	     92.68371244	    -34.06511266	    -19.66133667	      3.00051075	    112.56223500	    100.19693296
